<svg width="150" height="40" viewBox="0 0 150 40" fill="none" xmlns="http://www.w3.org/2000/svg">
<path d="M13.06 31.33C11.52 31.33 10.08 31.05 8.74 30.49C7.42 29.93 6.26 29.16 5.26 28.18C4.26 27.18 3.48 26.02 2.92 24.7C2.38 23.36 2.11 21.93 2.11 20.41C2.11 18.89 2.38 17.48 2.92 16.18C3.48 14.86 4.25 13.71 5.23 12.73C6.23 11.73 7.39 10.96 8.71 10.42C10.03 9.86 11.46 9.58 13 9.58C14.54 9.58 15.97 9.86 17.29 10.42C18.61 10.96 19.77 11.73 20.77 12.73C21.77 13.71 22.54 14.86 23.08 16.18C23.64 17.5 23.92 18.92 23.92 20.44C23.92 21.96 23.64 23.38 23.08 24.7C22.54 26.02 21.77 27.18 20.77 28.18C19.79 29.16 18.64 29.93 17.32 30.49C16 31.05 14.58 31.33 13.06 31.33ZM22.57 32.56L12.91 22.9L15.37 20.41L25.06 30.1L22.57 32.56ZM13 27.52C14.34 27.52 15.51 27.22 16.51 26.62C17.53 26.02 18.32 25.19 18.88 24.13C19.46 23.07 19.75 21.83 19.75 20.41C19.75 19.37 19.58 18.42 19.24 17.56C18.92 16.7 18.46 15.96 17.86 15.34C17.26 14.7 16.55 14.21 15.73 13.87C14.91 13.53 14 13.36 13 13.36C11.68 13.36 10.51 13.66 9.49 14.26C8.49 14.84 7.7 15.66 7.12 16.72C6.56 17.78 6.28 19.01 6.28 20.41C6.28 21.47 6.44 22.44 6.76 23.32C7.1 24.2 7.56 24.95 8.14 25.57C8.74 26.19 9.45 26.67 10.27 27.01C11.11 27.35 12.02 27.52 13 27.52ZM87.7956 31.3C86.0956 31.3 84.6356 31.01 83.4156 30.43C82.2156 29.85 81.1256 28.98 80.1456 27.82L82.8456 25.12C83.4656 25.94 84.1856 26.58 85.0056 27.04C85.8256 27.48 86.8256 27.7 88.0056 27.7C89.0656 27.7 89.9056 27.49 90.5256 27.07C91.1656 26.65 91.4856 26.07 91.4856 25.33C91.4856 24.69 91.3056 24.17 90.9456 23.77C90.5856 23.37 90.1056 23.03 89.5056 22.75C88.9256 22.47 88.2756 22.22 87.5556 22C86.8556 21.76 86.1456 21.49 85.4256 21.19C84.7256 20.89 84.0756 20.52 83.4756 20.08C82.8956 19.62 82.4256 19.04 82.0656 18.34C81.7056 17.62 81.5256 16.72 81.5256 15.64C81.5256 14.36 81.8356 13.27 82.4556 12.37C83.0756 11.47 83.9256 10.78 85.0056 10.3C86.0856 9.82 87.3056 9.58 88.6656 9.58C90.1056 9.58 91.4056 9.85 92.5656 10.39C93.7256 10.93 94.6756 11.63 95.4156 12.49L92.7156 15.19C92.0956 14.51 91.4556 14.01 90.7956 13.69C90.1556 13.37 89.4256 13.21 88.6056 13.21C87.6656 13.21 86.9256 13.39 86.3856 13.75C85.8456 14.11 85.5756 14.63 85.5756 15.31C85.5756 15.89 85.7556 16.36 86.1156 16.72C86.4756 17.08 86.9456 17.39 87.5256 17.65C88.1256 17.91 88.7756 18.16 89.4756 18.4C90.1956 18.64 90.9056 18.91 91.6056 19.21C92.3256 19.51 92.9756 19.9 93.5556 20.38C94.1556 20.86 94.6356 21.48 94.9956 22.24C95.3556 22.98 95.5356 23.9 95.5356 25C95.5356 26.96 94.8456 28.5 93.4656 29.62C92.0856 30.74 90.1956 31.3 87.7956 31.3Z" fill="#F05400"/>
<path d="M33.5294 31.3C32.2494 31.3 31.1094 31.03 30.1094 30.49C29.1294 29.95 28.3594 29.2 27.7994 28.24C27.2394 27.28 26.9594 26.17 26.9594 24.91V16.51H30.9194V24.82C30.9194 25.42 31.0194 25.94 31.2194 26.38C31.4194 26.8 31.7194 27.12 32.1194 27.34C32.5194 27.56 32.9894 27.67 33.5294 27.67C34.3494 27.67 34.9894 27.42 35.4494 26.92C35.9094 26.42 36.1394 25.72 36.1394 24.82V16.51H40.0694V24.91C40.0694 26.19 39.7894 27.31 39.2294 28.27C38.6894 29.23 37.9194 29.98 36.9194 30.52C35.9394 31.04 34.8094 31.3 33.5294 31.3ZM43.199 31V16.51H47.159V31H43.199ZM45.179 14.17C44.539 14.17 44.009 13.96 43.589 13.54C43.169 13.1 42.959 12.56 42.959 11.92C42.959 11.3 43.169 10.77 43.589 10.33C44.009 9.89 44.539 9.67 45.179 9.67C45.839 9.67 46.369 9.89 46.769 10.33C47.189 10.77 47.399 11.3 47.399 11.92C47.399 12.56 47.189 13.1 46.769 13.54C46.369 13.96 45.839 14.17 45.179 14.17ZM57.4804 31.3C56.0004 31.3 54.6704 30.97 53.4904 30.31C52.3104 29.65 51.3804 28.75 50.7004 27.61C50.0204 26.47 49.6804 25.19 49.6804 23.77C49.6804 22.33 50.0204 21.04 50.7004 19.9C51.3804 18.76 52.3104 17.86 53.4904 17.2C54.6904 16.52 56.0204 16.18 57.4804 16.18C58.6204 16.18 59.6704 16.39 60.6304 16.81C61.5904 17.23 62.4204 17.83 63.1204 18.61L60.6004 21.16C60.2204 20.74 59.7604 20.42 59.2204 20.2C58.7004 19.98 58.1204 19.87 57.4804 19.87C56.7604 19.87 56.1104 20.04 55.5304 20.38C54.9704 20.7 54.5204 21.15 54.1804 21.73C53.8604 22.29 53.7004 22.96 53.7004 23.74C53.7004 24.5 53.8604 25.18 54.1804 25.78C54.5204 26.36 54.9704 26.82 55.5304 27.16C56.1104 27.48 56.7604 27.64 57.4804 27.64C58.1404 27.64 58.7304 27.53 59.2504 27.31C59.7904 27.07 60.2504 26.73 60.6304 26.29L63.1804 28.84C62.4404 29.64 61.5904 30.25 60.6304 30.67C59.6704 31.09 58.6204 31.3 57.4804 31.3ZM74.646 31L69.036 23.53L74.616 16.51H79.146L72.606 24.43L72.756 22.51L79.446 31H74.646ZM65.406 31V9.31H69.336V31H65.406ZM108.086 31V22.69C108.086 21.83 107.816 21.13 107.276 20.59C106.736 20.05 106.036 19.78 105.176 19.78C104.616 19.78 104.116 19.9 103.676 20.14C103.236 20.38 102.886 20.72 102.626 21.16C102.386 21.6 102.266 22.11 102.266 22.69L100.736 21.91C100.736 20.77 100.976 19.78 101.456 18.94C101.936 18.08 102.596 17.41 103.436 16.93C104.296 16.45 105.276 16.21 106.376 16.21C107.476 16.21 108.446 16.45 109.286 16.93C110.146 17.41 110.816 18.07 111.296 18.91C111.776 19.75 112.016 20.72 112.016 21.82V31H108.086ZM98.3357 31V9.31H102.266V31H98.3357ZM121.991 31.3C120.531 31.3 119.211 30.97 118.031 30.31C116.871 29.63 115.941 28.72 115.241 27.58C114.561 26.42 114.221 25.13 114.221 23.71C114.221 22.29 114.561 21.02 115.241 19.9C115.921 18.76 116.851 17.86 118.031 17.2C119.211 16.52 120.521 16.18 121.961 16.18C123.441 16.18 124.761 16.52 125.921 17.2C127.101 17.86 128.031 18.76 128.711 19.9C129.391 21.02 129.731 22.29 129.731 23.71C129.731 25.13 129.391 26.42 128.711 27.58C128.031 28.72 127.101 29.63 125.921 30.31C124.761 30.97 123.451 31.3 121.991 31.3ZM121.961 27.64C122.701 27.64 123.351 27.48 123.911 27.16C124.491 26.82 124.931 26.36 125.231 25.78C125.551 25.18 125.711 24.5 125.711 23.74C125.711 22.98 125.551 22.31 125.231 21.73C124.911 21.15 124.471 20.7 123.911 20.38C123.351 20.04 122.701 19.87 121.961 19.87C121.241 19.87 120.601 20.04 120.041 20.38C119.481 20.7 119.041 21.15 118.721 21.73C118.401 22.31 118.241 22.98 118.241 23.74C118.241 24.5 118.401 25.18 118.721 25.78C119.041 26.36 119.481 26.82 120.041 27.16C120.601 27.48 121.241 27.64 121.961 27.64ZM140.301 31.3C139.261 31.3 138.321 31.09 137.481 30.67C136.641 30.23 135.971 29.64 135.471 28.9C134.971 28.16 134.701 27.31 134.661 26.35V21.22C134.701 20.26 134.971 19.41 135.471 18.67C135.991 17.91 136.661 17.31 137.481 16.87C138.321 16.43 139.261 16.21 140.301 16.21C141.641 16.21 142.841 16.54 143.901 17.2C144.961 17.86 145.791 18.76 146.391 19.9C147.011 21.04 147.321 22.33 147.321 23.77C147.321 25.19 147.011 26.47 146.391 27.61C145.791 28.75 144.961 29.65 143.901 30.31C142.841 30.97 141.641 31.3 140.301 31.3ZM132.261 37.06V16.51H136.191V20.32L135.531 23.83L136.161 27.34V37.06H132.261ZM139.611 27.67C140.331 27.67 140.971 27.51 141.531 27.19C142.091 26.85 142.521 26.39 142.821 25.81C143.141 25.21 143.301 24.52 143.301 23.74C143.301 22.98 143.141 22.31 142.821 21.73C142.521 21.13 142.091 20.67 141.531 20.35C140.971 20.01 140.331 19.84 139.611 19.84C138.911 19.84 138.281 20.01 137.721 20.35C137.161 20.67 136.721 21.13 136.401 21.73C136.101 22.31 135.951 22.98 135.951 23.74C135.951 24.52 136.101 25.21 136.401 25.81C136.721 26.39 137.151 26.85 137.691 27.19C138.251 27.51 138.891 27.67 139.611 27.67Z" fill="#212121"/>
</svg>
