<svg width="150" height="40" viewBox="0 0 150 40" fill="none" xmlns="http://www.w3.org/2000/svg">
<path d="M30.778 28.22C29.6927 28.22 28.6807 28.022 27.742 27.626C26.8033 27.2153 25.982 26.6507 25.278 25.932C24.574 25.1987 24.024 24.3553 23.628 23.402C23.232 22.4487 23.034 21.4293 23.034 20.344C23.034 19.244 23.232 18.2247 23.628 17.286C24.024 16.3327 24.5667 15.4967 25.256 14.778C25.96 14.0593 26.774 13.502 27.698 13.106C28.6367 12.71 29.6487 12.512 30.734 12.512C31.8193 12.512 32.824 12.71 33.748 13.106C34.6867 13.502 35.508 14.0593 36.212 14.778C36.916 15.4967 37.4587 16.3327 37.84 17.286C38.236 18.2393 38.434 19.266 38.434 20.366C38.434 21.4513 38.236 22.4707 37.84 23.424C37.4587 24.3773 36.916 25.2133 36.212 25.932C35.5227 26.6507 34.7087 27.2153 33.77 27.626C32.846 28.022 31.8487 28.22 30.778 28.22ZM38.082 29.078L30.932 21.928L32.274 20.586L39.402 27.736L38.082 29.078ZM30.734 26.24C31.8193 26.24 32.78 25.9907 33.616 25.492C34.452 24.9787 35.1047 24.282 35.574 23.402C36.058 22.5073 36.3 21.488 36.3 20.344C36.3 19.4933 36.1607 18.716 35.882 18.012C35.618 17.2933 35.2367 16.67 34.738 16.142C34.2393 15.614 33.6527 15.2107 32.978 14.932C32.3033 14.6387 31.5553 14.492 30.734 14.492C29.6487 14.492 28.688 14.7413 27.852 15.24C27.016 15.7387 26.356 16.428 25.872 17.308C25.4027 18.188 25.168 19.2 25.168 20.344C25.168 21.1947 25.3073 21.9867 25.586 22.72C25.8647 23.4387 26.246 24.062 26.73 24.59C27.2287 25.1033 27.8153 25.5067 28.49 25.8C29.1793 26.0933 29.9273 26.24 30.734 26.24ZM84.0168 28.22C82.8141 28.22 81.7875 28 80.9368 27.56C80.0861 27.12 79.3308 26.482 78.6708 25.646L80.0788 24.238C80.5628 24.9127 81.1201 25.426 81.7508 25.778C82.3815 26.1153 83.1588 26.284 84.0828 26.284C84.9921 26.284 85.7181 26.086 86.2608 25.69C86.8181 25.294 87.0968 24.7513 87.0968 24.062C87.0968 23.49 86.9648 23.028 86.7008 22.676C86.4368 22.324 86.0775 22.038 85.6228 21.818C85.1828 21.5833 84.6988 21.378 84.1708 21.202C83.6428 21.0113 83.1148 20.8133 82.5868 20.608C82.0588 20.388 81.5748 20.124 81.1348 19.816C80.6948 19.4933 80.3355 19.0753 80.0568 18.562C79.7928 18.0487 79.6608 17.4033 79.6608 16.626C79.6608 15.7607 79.8661 15.0273 80.2768 14.426C80.7021 13.81 81.2741 13.3407 81.9928 13.018C82.7261 12.6807 83.5475 12.512 84.4568 12.512C85.4541 12.512 86.3488 12.71 87.1408 13.106C87.9328 13.4873 88.5781 13.9933 89.0768 14.624L87.6688 16.032C87.2141 15.504 86.7228 15.108 86.1948 14.844C85.6815 14.58 85.0875 14.448 84.4128 14.448C83.5915 14.448 82.9388 14.6313 82.4548 14.998C81.9708 15.35 81.7288 15.8487 81.7288 16.494C81.7288 17.0073 81.8608 17.4253 82.1248 17.748C82.4035 18.056 82.7628 18.32 83.2028 18.54C83.6428 18.76 84.1268 18.9653 84.6548 19.156C85.1975 19.332 85.7328 19.53 86.2608 19.75C86.7888 19.97 87.2728 20.2487 87.7128 20.586C88.1528 20.9233 88.5048 21.3633 88.7688 21.906C89.0475 22.434 89.1868 23.1013 89.1868 23.908C89.1868 25.2573 88.7175 26.3133 87.7788 27.076C86.8548 27.8387 85.6008 28.22 84.0168 28.22Z" fill="#F05400"/>
<path d="M45.6364 28.22C44.7858 28.22 44.0158 28.0293 43.3264 27.648C42.6518 27.252 42.1238 26.7093 41.7424 26.02C41.3611 25.3307 41.1704 24.5313 41.1704 23.622V17.55H43.1504V23.534C43.1504 24.106 43.2458 24.6047 43.4364 25.03C43.6418 25.4407 43.9351 25.756 44.3164 25.976C44.6978 26.196 45.1451 26.306 45.6584 26.306C46.4358 26.306 47.0444 26.064 47.4844 25.58C47.9244 25.0813 48.1444 24.3993 48.1444 23.534V17.55H50.1244V23.622C50.1244 24.5313 49.9338 25.3307 49.5524 26.02C49.1711 26.7093 48.6431 27.252 47.9684 27.648C47.3084 28.0293 46.5311 28.22 45.6364 28.22ZM52.8002 28V17.55H54.7802V28H52.8002ZM53.7902 15.46C53.4235 15.46 53.1228 15.3427 52.8882 15.108C52.6535 14.8587 52.5362 14.5507 52.5362 14.184C52.5362 13.832 52.6535 13.5387 52.8882 13.304C53.1228 13.0547 53.4235 12.93 53.7902 12.93C54.1568 12.93 54.4575 13.0547 54.6922 13.304C54.9268 13.5387 55.0442 13.832 55.0442 14.184C55.0442 14.5507 54.9268 14.8587 54.6922 15.108C54.4575 15.3427 54.1568 15.46 53.7902 15.46ZM62.4721 28.22C61.4454 28.22 60.5141 27.978 59.6781 27.494C58.8568 27.01 58.2041 26.3573 57.7201 25.536C57.2508 24.7 57.0161 23.776 57.0161 22.764C57.0161 21.7373 57.2508 20.8133 57.7201 19.992C58.2041 19.1707 58.8568 18.5253 59.6781 18.056C60.5141 17.572 61.4454 17.33 62.4721 17.33C63.2788 17.33 64.0268 17.484 64.7161 17.792C65.4054 18.0853 65.9994 18.518 66.4981 19.09L65.1781 20.41C64.8554 20.0287 64.4594 19.7427 63.9901 19.552C63.5354 19.3467 63.0294 19.244 62.4721 19.244C61.8121 19.244 61.2254 19.398 60.7121 19.706C60.1988 19.9993 59.7954 20.41 59.5021 20.938C59.2088 21.466 59.0621 22.0747 59.0621 22.764C59.0621 23.4533 59.2088 24.062 59.5021 24.59C59.7954 25.118 60.1988 25.536 60.7121 25.844C61.2254 26.152 61.8121 26.306 62.4721 26.306C63.0294 26.306 63.5354 26.2107 63.9901 26.02C64.4594 25.8147 64.8628 25.5213 65.2001 25.14L66.4981 26.46C66.0141 27.0173 65.4201 27.45 64.7161 27.758C64.0268 28.066 63.2788 28.22 62.4721 28.22ZM75.1498 28L70.2658 22.654L75.1058 17.55H77.5038L72.1138 23.182L72.2018 22.038L77.7018 28H75.1498ZM68.4618 28V12.292H70.4418V28H68.4618ZM99.0139 28V21.906C99.0139 21.114 98.7646 20.4613 98.2659 19.948C97.7673 19.4347 97.1219 19.178 96.3299 19.178C95.8019 19.178 95.3326 19.2953 94.9219 19.53C94.5113 19.7647 94.1886 20.0873 93.9539 20.498C93.7193 20.9087 93.6019 21.378 93.6019 21.906L92.7879 21.444C92.7879 20.652 92.9639 19.948 93.3159 19.332C93.6679 18.716 94.1593 18.232 94.7899 17.88C95.4206 17.5133 96.1319 17.33 96.9239 17.33C97.7159 17.33 98.4126 17.506 99.0139 17.858C99.6299 18.21 100.114 18.7013 100.466 19.332C100.818 19.9627 100.994 20.6887 100.994 21.51V28H99.0139ZM91.6219 28V12.292H93.6019V28H91.6219ZM108.449 28.22C107.422 28.22 106.498 27.978 105.677 27.494C104.855 27.01 104.203 26.3573 103.719 25.536C103.235 24.7 102.993 23.7687 102.993 22.742C102.993 21.73 103.235 20.8207 103.719 20.014C104.203 19.1927 104.855 18.54 105.677 18.056C106.498 17.572 107.422 17.33 108.449 17.33C109.461 17.33 110.377 17.572 111.199 18.056C112.035 18.5253 112.695 19.1707 113.179 19.992C113.663 20.8133 113.905 21.73 113.905 22.742C113.905 23.7687 113.663 24.7 113.179 25.536C112.695 26.3573 112.035 27.01 111.199 27.494C110.377 27.978 109.461 28.22 108.449 28.22ZM108.449 26.306C109.109 26.306 109.695 26.152 110.209 25.844C110.722 25.536 111.125 25.118 111.419 24.59C111.712 24.0473 111.859 23.4313 111.859 22.742C111.859 22.0673 111.705 21.466 111.397 20.938C111.103 20.41 110.7 19.9993 110.187 19.706C109.688 19.398 109.109 19.244 108.449 19.244C107.789 19.244 107.202 19.398 106.689 19.706C106.175 19.9993 105.772 20.41 105.479 20.938C105.185 21.466 105.039 22.0673 105.039 22.742C105.039 23.4313 105.185 24.0473 105.479 24.59C105.772 25.118 106.175 25.536 106.689 25.844C107.202 26.152 107.789 26.306 108.449 26.306ZM121.636 28.22C120.844 28.22 120.125 28.0587 119.48 27.736C118.849 27.3987 118.343 26.9367 117.962 26.35C117.58 25.7633 117.368 25.096 117.324 24.348V21.202C117.368 20.4393 117.58 19.772 117.962 19.2C118.358 18.6133 118.871 18.1587 119.502 17.836C120.147 17.4987 120.858 17.33 121.636 17.33C122.589 17.33 123.447 17.572 124.21 18.056C124.987 18.54 125.596 19.1927 126.036 20.014C126.476 20.8353 126.696 21.7593 126.696 22.786C126.696 23.8127 126.476 24.7367 126.036 25.558C125.596 26.3793 124.987 27.032 124.21 27.516C123.447 27.9853 122.589 28.22 121.636 28.22ZM116.136 32.378V17.55H118.116V20.3L117.742 22.83L118.116 25.382V32.378H116.136ZM121.306 26.35C121.966 26.35 122.545 26.196 123.044 25.888C123.542 25.58 123.938 25.162 124.232 24.634C124.525 24.0913 124.672 23.468 124.672 22.764C124.672 22.0747 124.525 21.4587 124.232 20.916C123.938 20.3733 123.542 19.9553 123.044 19.662C122.545 19.354 121.973 19.2 121.328 19.2C120.668 19.2 120.088 19.354 119.59 19.662C119.091 19.9553 118.702 20.3733 118.424 20.916C118.145 21.4587 118.006 22.082 118.006 22.786C118.006 23.4753 118.138 24.0913 118.402 24.634C118.68 25.162 119.069 25.58 119.568 25.888C120.081 26.196 120.66 26.35 121.306 26.35Z" fill="#212121"/>
</svg>
