<svg width="150" height="40" viewBox="0 0 150 40" fill="none" xmlns="http://www.w3.org/2000/svg">
<path d="M38.682 26.68C37.794 26.68 36.966 26.518 36.198 26.194C35.43 25.858 34.758 25.396 34.182 24.808C33.606 24.208 33.156 23.518 32.832 22.738C32.508 21.958 32.346 21.124 32.346 20.236C32.346 19.336 32.508 18.502 32.832 17.734C33.156 16.954 33.6 16.27 34.164 15.682C34.74 15.094 35.406 14.638 36.162 14.314C36.93 13.99 37.758 13.828 38.646 13.828C39.534 13.828 40.356 13.99 41.112 14.314C41.88 14.638 42.552 15.094 43.128 15.682C43.704 16.27 44.148 16.954 44.46 17.734C44.784 18.514 44.946 19.354 44.946 20.254C44.946 21.142 44.784 21.976 44.46 22.756C44.148 23.536 43.704 24.22 43.128 24.808C42.564 25.396 41.898 25.858 41.13 26.194C40.374 26.518 39.558 26.68 38.682 26.68ZM44.658 27.382L38.808 21.532L39.906 20.434L45.738 26.284L44.658 27.382ZM38.646 25.06C39.534 25.06 40.32 24.856 41.004 24.448C41.688 24.028 42.222 23.458 42.606 22.738C43.002 22.006 43.2 21.172 43.2 20.236C43.2 19.54 43.086 18.904 42.858 18.328C42.642 17.74 42.33 17.23 41.922 16.798C41.514 16.366 41.034 16.036 40.482 15.808C39.93 15.568 39.318 15.448 38.646 15.448C37.758 15.448 36.972 15.652 36.288 16.06C35.604 16.468 35.064 17.032 34.668 17.752C34.284 18.472 34.092 19.3 34.092 20.236C34.092 20.932 34.206 21.58 34.434 22.18C34.662 22.768 34.974 23.278 35.37 23.71C35.778 24.13 36.258 24.46 36.81 24.7C37.374 24.94 37.986 25.06 38.646 25.06ZM82.241 26.68C81.257 26.68 80.417 26.5 79.721 26.14C79.025 25.78 78.407 25.258 77.867 24.574L79.019 23.422C79.415 23.974 79.871 24.394 80.387 24.682C80.903 24.958 81.539 25.096 82.295 25.096C83.039 25.096 83.633 24.934 84.077 24.61C84.533 24.286 84.761 23.842 84.761 23.278C84.761 22.81 84.653 22.432 84.437 22.144C84.221 21.856 83.927 21.622 83.555 21.442C83.195 21.25 82.799 21.082 82.367 20.938C81.935 20.782 81.503 20.62 81.071 20.452C80.639 20.272 80.243 20.056 79.883 19.804C79.523 19.54 79.229 19.198 79.001 18.778C78.785 18.358 78.677 17.83 78.677 17.194C78.677 16.486 78.845 15.886 79.181 15.394C79.529 14.89 79.997 14.506 80.585 14.242C81.185 13.966 81.857 13.828 82.601 13.828C83.417 13.828 84.149 13.99 84.797 14.314C85.445 14.626 85.973 15.04 86.381 15.556L85.229 16.708C84.857 16.276 84.455 15.952 84.023 15.736C83.603 15.52 83.117 15.412 82.565 15.412C81.893 15.412 81.359 15.562 80.963 15.862C80.567 16.15 80.369 16.558 80.369 17.086C80.369 17.506 80.477 17.848 80.693 18.112C80.921 18.364 81.215 18.58 81.575 18.76C81.935 18.94 82.331 19.108 82.763 19.264C83.207 19.408 83.645 19.57 84.077 19.75C84.509 19.93 84.905 20.158 85.265 20.434C85.625 20.71 85.913 21.07 86.129 21.514C86.357 21.946 86.471 22.492 86.471 23.152C86.471 24.256 86.087 25.12 85.319 25.744C84.563 26.368 83.537 26.68 82.241 26.68Z" fill="#F05400"/>
<path d="M50.8389 26.68C50.1429 26.68 49.5129 26.524 48.9489 26.212C48.3969 25.888 47.9649 25.444 47.6529 24.88C47.3409 24.316 47.1849 23.662 47.1849 22.918V17.95H48.8049V22.846C48.8049 23.314 48.8829 23.722 49.0389 24.07C49.2069 24.406 49.4469 24.664 49.7589 24.844C50.0709 25.024 50.4369 25.114 50.8569 25.114C51.4929 25.114 51.9909 24.916 52.3509 24.52C52.7109 24.112 52.8909 23.554 52.8909 22.846V17.95H54.5109V22.918C54.5109 23.662 54.3549 24.316 54.0429 24.88C53.7309 25.444 53.2989 25.888 52.7469 26.212C52.2069 26.524 51.5709 26.68 50.8389 26.68ZM56.7001 26.5V17.95H58.3201V26.5H56.7001ZM57.5101 16.24C57.2101 16.24 56.9641 16.144 56.7721 15.952C56.5801 15.748 56.4841 15.496 56.4841 15.196C56.4841 14.908 56.5801 14.668 56.7721 14.476C56.9641 14.272 57.2101 14.17 57.5101 14.17C57.8101 14.17 58.0561 14.272 58.2481 14.476C58.4401 14.668 58.5361 14.908 58.5361 15.196C58.5361 15.496 58.4401 15.748 58.2481 15.952C58.0561 16.144 57.8101 16.24 57.5101 16.24ZM64.6135 26.68C63.7735 26.68 63.0115 26.482 62.3275 26.086C61.6555 25.69 61.1215 25.156 60.7255 24.484C60.3415 23.8 60.1495 23.044 60.1495 22.216C60.1495 21.376 60.3415 20.62 60.7255 19.948C61.1215 19.276 61.6555 18.748 62.3275 18.364C63.0115 17.968 63.7735 17.77 64.6135 17.77C65.2735 17.77 65.8855 17.896 66.4495 18.148C67.0135 18.388 67.4995 18.742 67.9075 19.21L66.8275 20.29C66.5635 19.978 66.2395 19.744 65.8555 19.588C65.4835 19.42 65.0695 19.336 64.6135 19.336C64.0735 19.336 63.5935 19.462 63.1735 19.714C62.7535 19.954 62.4235 20.29 62.1835 20.722C61.9435 21.154 61.8235 21.652 61.8235 22.216C61.8235 22.78 61.9435 23.278 62.1835 23.71C62.4235 24.142 62.7535 24.484 63.1735 24.736C63.5935 24.988 64.0735 25.114 64.6135 25.114C65.0695 25.114 65.4835 25.036 65.8555 24.88C66.2395 24.712 66.5695 24.472 66.8455 24.16L67.9075 25.24C67.5115 25.696 67.0255 26.05 66.4495 26.302C65.8855 26.554 65.2735 26.68 64.6135 26.68ZM74.9862 26.5L70.9902 22.126L74.9502 17.95H76.9122L72.5022 22.558L72.5742 21.622L77.0742 26.5H74.9862ZM69.5142 26.5V13.648H71.1342V26.5H69.5142ZM94.5114 26.5V21.514C94.5114 20.866 94.3074 20.332 93.8994 19.912C93.4914 19.492 92.9634 19.282 92.3154 19.282C91.8834 19.282 91.4994 19.378 91.1634 19.57C90.8274 19.762 90.5634 20.026 90.3714 20.362C90.1794 20.698 90.0834 21.082 90.0834 21.514L89.4174 21.136C89.4174 20.488 89.5614 19.912 89.8494 19.408C90.1374 18.904 90.5394 18.508 91.0554 18.22C91.5714 17.92 92.1534 17.77 92.8014 17.77C93.4494 17.77 94.0194 17.914 94.5114 18.202C95.0154 18.49 95.4114 18.892 95.6994 19.408C95.9874 19.924 96.1314 20.518 96.1314 21.19V26.5H94.5114ZM88.4634 26.5V13.648H90.0834V26.5H88.4634ZM102.231 26.68C101.391 26.68 100.635 26.482 99.9627 26.086C99.2907 25.69 98.7567 25.156 98.3607 24.484C97.9647 23.8 97.7667 23.038 97.7667 22.198C97.7667 21.37 97.9647 20.626 98.3607 19.966C98.7567 19.294 99.2907 18.76 99.9627 18.364C100.635 17.968 101.391 17.77 102.231 17.77C103.059 17.77 103.809 17.968 104.481 18.364C105.165 18.748 105.705 19.276 106.101 19.948C106.497 20.62 106.695 21.37 106.695 22.198C106.695 23.038 106.497 23.8 106.101 24.484C105.705 25.156 105.165 25.69 104.481 26.086C103.809 26.482 103.059 26.68 102.231 26.68ZM102.231 25.114C102.771 25.114 103.251 24.988 103.671 24.736C104.091 24.484 104.421 24.142 104.661 23.71C104.901 23.266 105.021 22.762 105.021 22.198C105.021 21.646 104.895 21.154 104.643 20.722C104.403 20.29 104.073 19.954 103.653 19.714C103.245 19.462 102.771 19.336 102.231 19.336C101.691 19.336 101.211 19.462 100.791 19.714C100.371 19.954 100.041 20.29 99.8007 20.722C99.5607 21.154 99.4407 21.646 99.4407 22.198C99.4407 22.762 99.5607 23.266 99.8007 23.71C100.041 24.142 100.371 24.484 100.791 24.736C101.211 24.988 101.691 25.114 102.231 25.114ZM113.02 26.68C112.372 26.68 111.784 26.548 111.256 26.284C110.74 26.008 110.326 25.63 110.014 25.15C109.702 24.67 109.528 24.124 109.492 23.512V20.938C109.528 20.314 109.702 19.768 110.014 19.3C110.338 18.82 110.758 18.448 111.274 18.184C111.802 17.908 112.384 17.77 113.02 17.77C113.8 17.77 114.502 17.968 115.126 18.364C115.762 18.76 116.26 19.294 116.62 19.966C116.98 20.638 117.16 21.394 117.16 22.234C117.16 23.074 116.98 23.83 116.62 24.502C116.26 25.174 115.762 25.708 115.126 26.104C114.502 26.488 113.8 26.68 113.02 26.68ZM108.52 30.082V17.95H110.14V20.2L109.834 22.27L110.14 24.358V30.082H108.52ZM112.75 25.15C113.29 25.15 113.764 25.024 114.172 24.772C114.58 24.52 114.904 24.178 115.144 23.746C115.384 23.302 115.504 22.792 115.504 22.216C115.504 21.652 115.384 21.148 115.144 20.704C114.904 20.26 114.58 19.918 114.172 19.678C113.764 19.426 113.296 19.3 112.768 19.3C112.228 19.3 111.754 19.426 111.346 19.678C110.938 19.918 110.62 20.26 110.392 20.704C110.164 21.148 110.05 21.658 110.05 22.234C110.05 22.798 110.158 23.302 110.374 23.746C110.602 24.178 110.92 24.52 111.328 24.772C111.748 25.024 112.222 25.15 112.75 25.15Z" fill="black"/>
</svg>
